<?xml version="1.0" encoding="UTF-8"?>
<!DOCTYPE svg PUBLIC "-//W3C//DTD SVG 1.1//EN" "http://www.w3.org/Graphics/SVG/1.1/DTD/svg11.dtd">
<!-- Creator: CorelDRAW X8 -->
<svg xmlns="http://www.w3.org/2000/svg" xml:space="preserve" width="200px" height="94px" version="1.1" style="shape-rendering:geometricPrecision; text-rendering:geometricPrecision; image-rendering:optimizeQuality; fill-rule:evenodd; clip-rule:evenodd"
viewBox="0 0 969792 457529"
 xmlns:xlink="http://www.w3.org/1999/xlink">
 <defs>
  <style type="text/css">
   <![CDATA[
    .fil0 {fill:#393185}
    .fil1 {fill:#393185;fill-rule:nonzero}
   ]]>
  </style>
 </defs>
 <g id="Capa_x0020_1">
  <metadata id="CorelCorpID_0Corel-Layer"/>
  <path class="fil0" d="M48624 174536l-27699 -41067 -14980 10108 -5945 -8809 40509 -27323 5942 8808 -15051 10155 27697 41062 -10473 7066zm22070 -16013l-11602 -62770 12619 -7285 48484 41474 -11871 6853 -9456 -8822 -19214 11094 2491 12844 -11451 6612zm1268 -54532l5378 24511 13259 -7655 -18481 -16945 -156 89zm55244 23599l-23505 -55375 11631 -4938 19219 45275 27496 -11670 4286 10100 -39127 16608zm47182 -20292l-17589 -57531 12085 -3694 14380 47038 28565 -8733 3209 10494 -40650 12426zm48699 -15572l-14552 -58372 42958 -10713 2572 10312 -31025 7734 3097 12421 28510 -7105 2548 10227 -28507 7108 3764 15101 32337 -8063 2574 10311 -44276 11039zm54329 -13684l-9411 -59420 30164 -4776c4090,-647 7661,-392 10692,751 3036,1142 5425,2867 7160,5175 1735,2295 2862,4873 3383,7724 345,2180 313,4288 -81,6354 -391,2053 -1171,3912 -2339,5553 -1164,1651 -2651,2961 -4484,3944 3169,485 5415,1750 6737,3772 1325,2037 2257,4784 2804,8253l397 2496c182,1153 271,2071 263,2737 527,2613 1075,4559 1646,5837 566,1284 1424,1967 2572,2066l261 1654 -13718 2170c-649,-1223 -1192,-2619 -1656,-4199 -462,-1592 -861,-3295 -1195,-5147 -334,-1839 -670,-3607 -996,-5292 -399,-1998 -851,-3519 -1370,-4555 -514,-1035 -1484,-1781 -2885,-2269 -1403,-483 -3485,-504 -6223,-71l-13251 2100 3678 23218 -12148 1925zm6884 -35159l15455 -2447c3250,-514 5410,-1591 6490,-3242 1064,-1654 1387,-3795 975,-6399 -331,-2089 -1260,-3782 -2807,-5060 -1544,-1281 -3808,-1685 -6826,-1205l-15799 2501 2512 15852zm52813 25563l-5246 -59932 44107 -3861 926 10588 -31855 2786 1117 12755 29269 -2561 921 10499 -29270 2561 1357 15505 33200 -2906 926 10588 -45452 3978zm51856 -23943l12119 -637c174,2225 853,4049 2016,5439 1176,1408 2653,2389 4455,2950 1790,566 3759,798 5888,686 8662,-456 12932,-3138 12812,-8060 -88,-1714 -602,-3026 -1557,-3941 -957,-926 -2050,-1552 -3268,-1894 -1234,-355 -3371,-830 -6430,-1450 -2533,-535 -4474,-872 -5851,-1020 -4121,-569 -7585,-1404 -10421,-2468 -2835,-1069 -5157,-2791 -7001,-5152 -1839,-2345 -2856,-5519 -3065,-9487 -94,-3680 671,-6935 2293,-9784 1625,-2851 4077,-5102 7369,-6753 3279,-1667 7291,-2619 12025,-2867 4387,-229 8149,159 11276,1184 3112,1010 5627,2429 7526,4226 1906,1816 3325,3822 4264,6033 945,2215 1521,4432 1748,6694l-12027 631c-856,-5929 -5191,-8691 -12991,-8282 -2861,248 -5240,944 -7123,2105 -1881,1171 -2836,2927 -2877,5290 164,3143 1857,5120 5099,5934 3060,590 5940,1138 8634,1651 2679,517 4654,906 5913,1187 4427,843 7915,1821 10445,2917 2530,1092 4468,2652 5788,4679 1320,2011 2074,4708 2254,8094 216,4150 -522,7622 -2220,10395 -1698,2783 -3822,4919 -6394,6409 -2564,1473 -5023,2509 -7368,3067 -2356,569 -4336,895 -5953,981 -17109,715 -26220,-5538 -27378,-18757zm82469 16224l1051 -60151 18499 324 9967 47612 167 2 11618 -47236 18167 321 -1048 60148 -11811 -206 876 -50361 -167 151 -12004 50012 -12379 -214 -10079 -50552 -173 149 -876 50207 -11808 -206zm70258 2126l5243 -59929 44104 3861 -924 10585 -31854 -2789 -1114 12756 29269 2558 -918 10505 -29272 -2564 -1356 15504 33203 2906 -926 10585 -45455 -3978zm58158 -24931c910,-4685 2337,-8793 4278,-12312 1930,-3537 4272,-6396 7037,-8600 2776,-2199 5929,-3717 9461,-4557 3548,-838 7353,-955 11438,-350 4805,762 8929,2361 12372,4797 3435,2452 5994,5454 7661,9020 1680,3584 2402,7385 2163,11402l-12495 -1980c-579,-7025 -4220,-11130 -10908,-12317 -4975,-788 -9086,480 -12325,3808 -3251,3326 -5436,8300 -6571,14939 89,143 120,318 83,537 -466,3399 -401,6644 222,9735 613,3091 1836,5699 3702,7843 1846,2144 4324,3454 7408,3942 7397,1171 12502,-1831 15306,-9013l12494 1980c-1471,4101 -3526,7627 -6192,10565 -2658,2955 -5924,5107 -9790,6442 -3868,1336 -8211,1652 -13050,939 -5250,-829 -9768,-2705 -13545,-5600 -3788,-2903 -6524,-6837 -8207,-11834 -1682,-4980 -2003,-10878 -986,-17678 194,-477 340,-1048 444,-1708zm52693 40626l33378 -54407 14252 3029 8280 63262 -13410 -2851 -1122 -12883 -21702 -4614 -6743 11211 -12933 -2747zm37429 -39677l-12406 21814 14978 3185 -2395 -24960 -177 -39zm21506 -27874l-14683 9453 -8180 -1740 10249 -10394 12614 2681zm3660 82250l17589 -57530 12737 3892 10572 46978 162 50 12228 -40006 11201 3422 -17589 57532 -11999 -3670 -10922 -48131 -159 -52 -12525 40968 -11295 -3453zm56734 18577l20575 -56530 11874 4319 -20576 56533 -11873 -4322zm34376 -20706c2241,-4212 4808,-7726 7690,-10525 2882,-2814 5960,-4867 9247,-6164 3297,-1288 6753,-1823 10379,-1593 3636,240 7309,1239 11039,3012 4374,2131 7846,4868 10426,8201 2572,3350 4142,6970 4693,10870 558,3918 138,7760 -1263,11532l-11370 -5546c1497,-6886 -788,-11879 -6834,-14967 -4526,-2209 -8830,-2199 -12899,36 -4080,2231 -7627,6352 -10653,12370 44,159 24,336 -78,534 -1440,3115 -2327,6237 -2629,9375 -321,3135 88,5987 1244,8582 1140,2590 3125,4567 5931,5937 6733,3284 12492,1904 17273,-4142l11368 5545c-2603,3490 -5603,6263 -9009,8292 -3404,2051 -7158,3154 -11248,3300 -4088,146 -8331,-824 -12753,-2919 -4776,-2329 -8548,-5441 -11315,-9317 -2773,-3882 -4242,-8444 -4388,-13715 -151,-5256 1265,-10990 4226,-17193 324,-404 629,-902 923,-1505zm55766 31283l1211 -1792c3602,-5342 7593,-9461 11980,-12353 4385,-2880 9161,-4252 14302,-4098 5134,151 10505,2040 16110,5671 3063,2066 5676,4551 7807,7452 2142,2888 3608,6151 4401,9782 801,3631 696,7601 -305,11905 -994,4290 -3060,8751 -6180,13376 -2739,4056 -5751,7303 -9059,9766 -3313,2459 -6787,4100 -10423,4930 -3647,837 -7330,842 -11060,7 -3735,-821 -7372,-2433 -10922,-4825 -4797,-3240 -8261,-7108 -10387,-11584 -2128,-4479 -2937,-9164 -2425,-14065 508,-4888 2159,-9612 4950,-14172zm12839 3110c-3641,5396 -5577,10566 -5809,15525 -237,4938 2022,9067 6764,12364 3167,2139 6344,3039 9552,2697 3188,-341 6080,-1484 8676,-3414 2592,-1923 4755,-4179 6479,-6735 3034,-4497 4956,-9239 5749,-14235 798,-4997 -1625,-9439 -7249,-13318 -2034,-1372 -4372,-2194 -7022,-2483 -2647,-290 -5480,323 -8498,1802 -3005,1489 -5887,4087 -8642,7797zm38944 41792l8874 8274c-1479,1672 -2319,3425 -2512,5230 -193,1821 125,3566 973,5253 838,1678 2037,3256 3597,4711 6347,5916 11243,7127 14699,3618 1171,-1254 1758,-2535 1750,-3858 3,-1335 -305,-2556 -905,-3670 -603,-1129 -1742,-2997 -3422,-5631 -1372,-2191 -2484,-3822 -3331,-4917 -2455,-3360 -4260,-6433 -5465,-9211 -1200,-2778 -1575,-5647 -1158,-8613 412,-2953 1985,-5890 4698,-8798 2579,-2622 5451,-4330 8628,-5144 3180,-811 6503,-613 9978,608 3477,1202 6949,3430 10415,6659 3211,2997 5546,5976 6983,8934 1435,2940 2163,5736 2186,8350 23,2632 -436,5047 -1377,7259 -937,2217 -2131,4171 -3603,5908l-8808 -8214c3672,-4737 2647,-9771 -3065,-15098 -2165,-1888 -4320,-3114 -6464,-3662 -2147,-537 -4072,-8 -5801,1604 -2149,2304 -2395,4896 -728,7789 1703,2614 3308,5066 4808,7361 1492,2285 2584,3976 3255,5076 2470,3770 4189,6957 5159,9539 968,2580 1192,5058 652,7416 -529,2345 -1943,4763 -4257,7241 -2832,3039 -5845,4922 -9017,5624 -3182,715 -6192,670 -9054,-146 -2840,-819 -5295,-1868 -7322,-3169 -2047,-1299 -3659,-2497 -4841,-3600 -12401,-11814 -14232,-22709 -5525,-32723z"/>
  <path class="fil1" d="M260837 397569l10003 0c47,1836 519,3365 1424,4559 898,1206 2082,2079 3527,2619 1458,538 3065,817 4826,817 7142,0 10773,-2022 10885,-6075 0,-1417 -366,-2517 -1114,-3310 -746,-806 -1617,-1367 -2616,-1698 -989,-334 -2737,-827 -5228,-1472 -2042,-540 -3628,-907 -4755,-1093 -3365,-641 -6190,-1468 -8475,-2478 -2285,-1001 -4124,-2517 -5537,-4538 -1412,-2011 -2113,-4664 -2113,-7935 83,-3034 850,-5674 2308,-7951 1458,-2272 3574,-4019 6354,-5235 2778,-1228 6120,-1836 10014,-1836 3628,0 6706,482 9221,1458 2530,962 4539,2238 6020,3800 1482,1573 2572,3284 3250,5144 676,1863 1057,3712 1151,5582l-9925 0c-449,-4914 -3895,-7371 -10338,-7371 -2366,78 -4351,550 -5950,1424 -1596,884 -2457,2285 -2595,4226 0,2595 1312,4296 3941,5099 2491,621 4847,1195 7028,1735 2193,540 3790,942 4812,1228 3618,885 6443,1839 8475,2849 2035,1009 3550,2376 4560,4100 1001,1712 1507,3963 1507,6754 0,3422 -759,6247 -2274,8464 -1518,2207 -3357,3871 -5538,4985 -2170,1103 -4239,1849 -6200,2204 -1954,370 -3595,553 -4941,553 -14091,-149 -21329,-5687 -21707,-16608z"/>
  <path class="fil0" d="M198633 169745l367155 0 121577 94305 240644 45570c10682,2019 22910,11490 22629,22354l-1109 42208c6464,-986 8986,4919 10270,17541 772,7643 -4283,13489 -17800,17965l-4304 6458 -83932 0c1588,-43326 -19138,-67694 -47920,-85197 60279,48669 16749,128933 -37520,126526 -66124,-2943 -84876,-65538 -54595,-118160 -20296,17768 -30725,41088 -26734,72522l-320640 0c-3185,-38107 -15862,-57219 -31200,-71010 34838,46772 3052,116473 -56267,115573 -57832,-879 -79310,-53424 -63163,-105893 -12930,13165 -17511,32598 -18296,54879l-166771 -9687c-2334,-851 -5045,1103 -6980,167 -18711,-8997 -18158,-24585 522,-41057l-1075 -79746c3933,-3318 21324,2361 25390,-858 47941,-37955 91087,-77899 150119,-104460zm17748 16002l327003 0c17510,0 32527,14117 46135,25143l61314 49696c4836,24708 -7572,41931 -38539,47938l-65991 0 -44962 43267 -114451 0 -19853 -43267 -205543 0c-32509,-23191 -39682,-43678 -20440,-60216 24749,-21269 45546,-42877 75327,-62561zm61570 241558c20917,0 37976,-17056 37976,-37976 0,-20920 -17059,-37977 -37976,-37977 -20920,0 -37979,17057 -37979,37977 0,20920 17059,37976 37979,37976zm491014 686c20353,0 36954,-16603 36954,-36951 0,-20354 -16601,-36956 -36954,-36956 -20351,0 -36959,16602 -36959,36956 0,20348 16608,36951 36959,36951z"/>
  <polygon class="fil1" points="755636,415745 755636,366197 766043,366197 766043,406717 790630,406717 790630,415745 "/>
  <path class="fil0" d="M346908 204779l36356 0 35501 106346 106605 -201 -26403 28824 -106638 284 -16037 -56580 -32021 0 -3793 9466 -24796 0 31226 -88139zm23504 57933l-7577 -26734 -10708 26734 18285 0z"/>
  <path class="fil0" d="M224611 204327l72361 0 10819 10596 0 19837 -11722 9466 11722 5861 0 35619 -6312 7439 -131820 -211 -20811 -19718 75763 0 0 -68889zm30698 50722l17957 0c3120,0 5671,2433 5671,5410l0 5861c0,2976 -2551,5410 -5671,5410l-17957 0c-320,0 -636,-29 -944,-81l0 -16527c308,-52 624,-73 944,-73zm0 -34265l17957 0c3120,0 5671,2434 5671,5410l0 5861c0,2976 -2551,5410 -5671,5410l-17957 0c-320,0 -636,-29 -944,-81l0 -16527c308,-52 624,-73 944,-73z"/>
  <path class="fil0" d="M434001 205102l52323 0c9135,0 16608,7272 16608,16162l0 11668c0,1799 -311,3531 -877,5154l-24130 -5906c31,-253 47,-508 47,-772l0 -438c0,-3626 -2964,-6589 -6589,-6589l-12343 0c-3626,0 -6589,2963 -6589,6589l0 438c0,3626 3140,5475 6589,6592l31630 10248c8688,2815 16608,8115 16608,17002l0 11668c0,8889 -7474,16162 -16608,16162l-52323 0 -17740 -20505 41378 1226c3625,0 6588,-2963 6588,-6589l0 -438c0,-3626 -3179,-5366 -6588,-6592l-34406 -12359c-5968,-2457 -10186,-8216 -10186,-14891l0 -11668c0,-8890 7473,-16162 16608,-16162z"/>
  <polygon class="fil0" points="521290,205718 569669,205950 589318,228028 555539,228028 555539,243060 595182,243060 595182,260910 555539,260910 555539,275708 638060,275708 609578,295438 521290,295203 "/>
 </g>
</svg>
